<?xml version="1.0" encoding="UTF-8" standalone="no"?>
<!DOCTYPE svg PUBLIC "-//W3C//DTD SVG 1.1//EN"
 "http://www.w3.org/Graphics/SVG/1.1/DTD/svg11.dtd">
<!-- Generated by graphviz version 2.36.0 (20140111.2315)
 -->
<!-- Title: G Pages: 1 -->
<svg width="504pt" height="838pt"
 viewBox="0.00 0.00 504.00 838.00" xmlns="http://www.w3.org/2000/svg" xmlns:xlink="http://www.w3.org/1999/xlink">
<g id="graph0" class="graph" transform="scale(1 1) rotate(0) translate(4 834)">
<title>G</title>
<polygon fill="white" stroke="none" points="-4,4 -4,-834 500,-834 500,4 -4,4"/>
<!-- main: -->
<g id="node1" class="node"><title>main:</title>
<polygon fill="Wheat" stroke="black" points="54,-441 0,-441 0,-405 54,-405 54,-441"/>
<text text-anchor="middle" x="27" y="-419.2" font-family="Times,serif" font-size="16.00" fill="blue">main:</text>
</g>
<!-- blk_dev_init -->
<g id="node2" class="node"><title>blk_dev_init</title>
<polygon fill="Wheat" stroke="black" points="215.5,-830 116.5,-830 116.5,-794 215.5,-794 215.5,-830"/>
<text text-anchor="middle" x="166" y="-808.2" font-family="Times,serif" font-size="16.00" fill="blue">blk_dev_init</text>
</g>
<!-- main:&#45;&gt;blk_dev_init -->
<g id="edge1" class="edge"><title>main:&#45;&gt;blk_dev_init</title>
<path fill="none" stroke="black" d="M28.7421,-441.039C31.7885,-506.677 45.3629,-731.728 90,-785 94.7051,-790.615 100.671,-795.063 107.176,-798.585"/>
<polygon fill="black" stroke="black" points="105.769,-801.791 116.312,-802.838 108.723,-795.445 105.769,-801.791"/>
</g>
<!-- buffer_init -->
<g id="node3" class="node"><title>buffer_init</title>
<polygon fill="Wheat" stroke="black" points="209,-776 123,-776 123,-740 209,-740 209,-776"/>
<text text-anchor="middle" x="166" y="-754.2" font-family="Times,serif" font-size="16.00" fill="blue">buffer_init</text>
</g>
<!-- main:&#45;&gt;buffer_init -->
<g id="edge2" class="edge"><title>main:&#45;&gt;buffer_init</title>
<path fill="none" stroke="black" d="M29.3467,-441.166C34.0813,-500.406 51.7821,-686.71 90,-731 96.1747,-738.156 104.393,-743.415 113.125,-747.281"/>
<polygon fill="black" stroke="black" points="112.138,-750.65 122.729,-750.952 114.638,-744.112 112.138,-750.65"/>
</g>
<!-- chr_dev_init -->
<g id="node4" class="node"><title>chr_dev_init</title>
<polygon fill="Wheat" stroke="black" points="215,-722 117,-722 117,-686 215,-686 215,-722"/>
<text text-anchor="middle" x="166" y="-700.2" font-family="Times,serif" font-size="16.00" fill="blue">chr_dev_init</text>
</g>
<!-- main:&#45;&gt;chr_dev_init -->
<g id="edge3" class="edge"><title>main:&#45;&gt;chr_dev_init</title>
<path fill="none" stroke="black" d="M30.1994,-441.223C36.8274,-493.343 58.1334,-641.558 90,-677 94.8981,-682.448 100.978,-686.797 107.54,-690.269"/>
<polygon fill="black" stroke="black" points="106.175,-693.493 116.724,-694.481 109.093,-687.131 106.175,-693.493"/>
</g>
<!-- floppy_init -->
<g id="node5" class="node"><title>floppy_init</title>
<polygon fill="Wheat" stroke="black" points="210.5,-668 121.5,-668 121.5,-632 210.5,-632 210.5,-668"/>
<text text-anchor="middle" x="166" y="-646.2" font-family="Times,serif" font-size="16.00" fill="blue">floppy_init</text>
</g>
<!-- main:&#45;&gt;floppy_init -->
<g id="edge4" class="edge"><title>main:&#45;&gt;floppy_init</title>
<path fill="none" stroke="black" d="M28.8614,-441.046C31.5894,-478.654 42.9317,-566.211 90,-618 96.1531,-624.77 103.979,-630.162 112.241,-634.439"/>
<polygon fill="black" stroke="black" points="110.775,-637.617 121.319,-638.655 113.724,-631.268 110.775,-637.617"/>
</g>
<!-- fork -->
<g id="node6" class="node"><title>fork</title>
<polygon fill="Wheat" stroke="black" points="362,-792 308,-792 308,-756 362,-756 362,-792"/>
<text text-anchor="middle" x="335" y="-770.2" font-family="Times,serif" font-size="16.00" fill="blue">fork</text>
</g>
<!-- main:&#45;&gt;fork -->
<g id="edge5" class="edge"><title>main:&#45;&gt;fork</title>
<path fill="none" stroke="black" d="M29.5738,-441.122C33.4885,-474.701 46.727,-546.652 90,-585 142.116,-631.184 191.844,-574.695 242,-623 283.334,-662.809 240.941,-703.184 278,-747 283.5,-753.503 290.931,-758.563 298.579,-762.451"/>
<polygon fill="black" stroke="black" points="297.344,-765.733 307.901,-766.63 300.208,-759.345 297.344,-765.733"/>
</g>
<!-- hd_init -->
<g id="node7" class="node"><title>hd_init</title>
<polygon fill="Wheat" stroke="black" points="197.5,-576 134.5,-576 134.5,-540 197.5,-540 197.5,-576"/>
<text text-anchor="middle" x="166" y="-554.2" font-family="Times,serif" font-size="16.00" fill="blue">hd_init</text>
</g>
<!-- main:&#45;&gt;hd_init -->
<g id="edge6" class="edge"><title>main:&#45;&gt;hd_init</title>
<path fill="none" stroke="black" d="M33.9845,-441.295C42.6783,-465.151 61.004,-506.695 90,-531 99.8601,-539.265 112.45,-545.088 124.487,-549.152"/>
<polygon fill="black" stroke="black" points="123.809,-552.604 134.395,-552.168 125.847,-545.908 123.809,-552.604"/>
</g>
<!-- init -->
<g id="node8" class="node"><title>init</title>
<polygon fill="Wheat" stroke="black" points="193,-522 139,-522 139,-486 193,-486 193,-522"/>
<text text-anchor="middle" x="166" y="-500.2" font-family="Times,serif" font-size="16.00" fill="blue">init</text>
</g>
<!-- main:&#45;&gt;init -->
<g id="edge7" class="edge"><title>main:&#45;&gt;init</title>
<path fill="none" stroke="black" d="M45.3232,-441.247C57.0508,-452.758 73.3838,-467.241 90,-477 102.052,-484.079 116.269,-489.774 129.066,-494.077"/>
<polygon fill="black" stroke="black" points="128.365,-497.527 138.956,-497.228 130.49,-490.857 128.365,-497.527"/>
</g>
<!-- mem_init -->
<g id="node23" class="node"><title>mem_init</title>
<polygon fill="Wheat" stroke="black" points="205.5,-468 126.5,-468 126.5,-432 205.5,-432 205.5,-468"/>
<text text-anchor="middle" x="166" y="-446.2" font-family="Times,serif" font-size="16.00" fill="blue">mem_init</text>
</g>
<!-- main:&#45;&gt;mem_init -->
<g id="edge23" class="edge"><title>main:&#45;&gt;mem_init</title>
<path fill="none" stroke="black" d="M54.0911,-428.142C71.6379,-431.6 95.3055,-436.265 116.271,-440.396"/>
<polygon fill="black" stroke="black" points="115.819,-443.875 126.307,-442.374 117.173,-437.007 115.819,-443.875"/>
</g>
<!-- move_to_user_mode -->
<g id="node24" class="node"><title>move_to_user_mode</title>
<polygon fill="Wheat" stroke="black" points="242,-414 90,-414 90,-378 242,-378 242,-414"/>
<text text-anchor="middle" x="166" y="-392.2" font-family="Times,serif" font-size="16.00" fill="blue">move_to_user_mode</text>
</g>
<!-- main:&#45;&gt;move_to_user_mode -->
<g id="edge24" class="edge"><title>main:&#45;&gt;move_to_user_mode</title>
<path fill="none" stroke="black" d="M54.0911,-417.858C61.8122,-416.336 70.7184,-414.581 80.058,-412.74"/>
<polygon fill="black" stroke="black" points="80.7818,-416.165 89.9163,-410.798 79.4282,-409.297 80.7818,-416.165"/>
</g>
<!-- pause -->
<g id="node25" class="node"><title>pause</title>
<polygon fill="Wheat" stroke="black" points="193,-360 139,-360 139,-324 193,-324 193,-360"/>
<text text-anchor="middle" x="166" y="-338.2" font-family="Times,serif" font-size="16.00" fill="blue">pause</text>
</g>
<!-- main:&#45;&gt;pause -->
<g id="edge25" class="edge"><title>main:&#45;&gt;pause</title>
<path fill="none" stroke="black" d="M45.3232,-404.753C57.0508,-393.242 73.3838,-378.759 90,-369 102.052,-361.921 116.269,-356.226 129.066,-351.923"/>
<polygon fill="black" stroke="black" points="130.49,-355.143 138.956,-348.772 128.365,-348.473 130.49,-355.143"/>
</g>
<!-- rd_init -->
<g id="node26" class="node"><title>rd_init</title>
<polygon fill="Wheat" stroke="black" points="196,-306 136,-306 136,-270 196,-270 196,-306"/>
<text text-anchor="middle" x="166" y="-284.2" font-family="Times,serif" font-size="16.00" fill="blue">rd_init</text>
</g>
<!-- main:&#45;&gt;rd_init -->
<g id="edge26" class="edge"><title>main:&#45;&gt;rd_init</title>
<path fill="none" stroke="black" d="M33.9845,-404.705C42.6783,-380.849 61.004,-339.305 90,-315 100.293,-306.372 113.562,-300.405 126.07,-296.322"/>
<polygon fill="black" stroke="black" points="127.263,-299.619 135.867,-293.436 125.286,-292.905 127.263,-299.619"/>
</g>
<!-- sched_init -->
<g id="node27" class="node"><title>sched_init</title>
<polygon fill="Wheat" stroke="black" points="207.5,-252 124.5,-252 124.5,-216 207.5,-216 207.5,-252"/>
<text text-anchor="middle" x="166" y="-230.2" font-family="Times,serif" font-size="16.00" fill="blue">sched_init</text>
</g>
<!-- main:&#45;&gt;sched_init -->
<g id="edge27" class="edge"><title>main:&#45;&gt;sched_init</title>
<path fill="none" stroke="black" d="M30.0171,-404.759C34.6286,-371.625 48.9244,-301.264 90,-261 96.9681,-254.17 105.787,-249.054 114.909,-245.226"/>
<polygon fill="black" stroke="black" points="116.3,-248.443 124.46,-241.685 113.867,-241.879 116.3,-248.443"/>
</g>
<!-- sti -->
<g id="node28" class="node"><title>sti</title>
<polygon fill="Wheat" stroke="black" points="193,-198 139,-198 139,-162 193,-162 193,-198"/>
<text text-anchor="middle" x="166" y="-176.2" font-family="Times,serif" font-size="16.00" fill="blue">sti</text>
</g>
<!-- main:&#45;&gt;sti -->
<g id="edge28" class="edge"><title>main:&#45;&gt;sti</title>
<path fill="none" stroke="black" d="M27.9412,-404.998C28.7904,-364.258 36.5436,-264.108 90,-207 100.198,-196.106 115.111,-189.599 128.957,-185.716"/>
<polygon fill="black" stroke="black" points="129.881,-189.094 138.769,-183.327 128.225,-182.292 129.881,-189.094"/>
</g>
<!-- time_init -->
<g id="node29" class="node"><title>time_init</title>
<polygon fill="Wheat" stroke="black" points="203.5,-144 128.5,-144 128.5,-108 203.5,-108 203.5,-144"/>
<text text-anchor="middle" x="166" y="-122.2" font-family="Times,serif" font-size="16.00" fill="blue">time_init</text>
</g>
<!-- main:&#45;&gt;time_init -->
<g id="edge29" class="edge"><title>main:&#45;&gt;time_init</title>
<path fill="none" stroke="black" d="M29.9099,-404.811C35.9494,-350.521 56.2544,-191.053 90,-153 97.5221,-144.518 107.91,-138.699 118.56,-134.709"/>
<polygon fill="black" stroke="black" points="119.909,-137.951 128.339,-131.533 117.747,-131.293 119.909,-137.951"/>
</g>
<!-- trap_init -->
<g id="node35" class="node"><title>trap_init</title>
<polygon fill="Wheat" stroke="black" points="201.5,-90 130.5,-90 130.5,-54 201.5,-54 201.5,-90"/>
<text text-anchor="middle" x="166" y="-68.2" font-family="Times,serif" font-size="16.00" fill="blue">trap_init</text>
</g>
<!-- main:&#45;&gt;trap_init -->
<g id="edge35" class="edge"><title>main:&#45;&gt;trap_init</title>
<path fill="none" stroke="black" d="M29.1541,-404.761C33.3804,-343.437 49.9092,-145.912 90,-99 97.9372,-89.7124 109.319,-83.6195 120.826,-79.6226"/>
<polygon fill="black" stroke="black" points="121.877,-82.9614 130.449,-76.7339 119.864,-76.257 121.877,-82.9614"/>
</g>
<!-- tty_init -->
<g id="node36" class="node"><title>tty_init</title>
<polygon fill="Wheat" stroke="black" points="198,-36 134,-36 134,-0 198,-0 198,-36"/>
<text text-anchor="middle" x="166" y="-14.2" font-family="Times,serif" font-size="16.00" fill="blue">tty_init</text>
</g>
<!-- main:&#45;&gt;tty_init -->
<g id="edge36" class="edge"><title>main:&#45;&gt;tty_init</title>
<path fill="none" stroke="black" d="M28.6103,-404.639C31.2209,-336.732 43.5349,-100.852 90,-45 98.5201,-34.7586 111.238,-28.4016 123.791,-24.4558"/>
<polygon fill="black" stroke="black" points="124.993,-27.7572 133.741,-21.7801 123.175,-20.9973 124.993,-27.7572"/>
</g>
<!-- init&#45;&gt;fork -->
<g id="edge12" class="edge"><title>init&#45;&gt;fork</title>
<path fill="none" stroke="black" d="M193.042,-506.709C209.531,-509.83 229.945,-516.547 242,-531 304.34,-605.738 219.618,-669.131 278,-747 283.259,-754.014 290.817,-759.295 298.687,-763.237"/>
<polygon fill="black" stroke="black" points="297.384,-766.486 307.949,-767.272 300.18,-760.069 297.384,-766.486"/>
</g>
<!-- exit -->
<g id="node9" class="node"><title>exit</title>
<polygon fill="Wheat" stroke="black" points="362,-738 308,-738 308,-702 362,-702 362,-738"/>
<text text-anchor="middle" x="335" y="-716.2" font-family="Times,serif" font-size="16.00" fill="blue">exit</text>
</g>
<!-- init&#45;&gt;exit -->
<g id="edge8" class="edge"><title>init&#45;&gt;exit</title>
<path fill="none" stroke="black" d="M193.152,-506.996C209.472,-510.237 229.654,-516.979 242,-531 290.742,-586.355 232.192,-635.193 278,-693 283.396,-699.81 290.936,-705.007 298.738,-708.932"/>
<polygon fill="black" stroke="black" points="297.342,-712.141 307.904,-712.975 300.167,-705.737 297.342,-712.141"/>
</g>
<!-- close -->
<g id="node10" class="node"><title>close</title>
<polygon fill="Wheat" stroke="black" points="362,-684 308,-684 308,-648 362,-648 362,-684"/>
<text text-anchor="middle" x="335" y="-662.2" font-family="Times,serif" font-size="16.00" fill="blue">close</text>
</g>
<!-- init&#45;&gt;close -->
<g id="edge9" class="edge"><title>init&#45;&gt;close</title>
<path fill="none" stroke="black" d="M193.038,-507.512C209.103,-510.956 229.044,-517.732 242,-531 277.349,-567.2 244.575,-601.016 278,-639 283.515,-645.267 290.809,-650.212 298.304,-654.061"/>
<polygon fill="black" stroke="black" points="297.234,-657.419 307.786,-658.368 300.129,-651.046 297.234,-657.419"/>
</g>
<!-- dup -->
<g id="node11" class="node"><title>dup</title>
<polygon fill="Wheat" stroke="black" points="362,-630 308,-630 308,-594 362,-594 362,-630"/>
<text text-anchor="middle" x="335" y="-608.2" font-family="Times,serif" font-size="16.00" fill="blue">dup</text>
</g>
<!-- init&#45;&gt;dup -->
<g id="edge10" class="edge"><title>init&#45;&gt;dup</title>
<path fill="none" stroke="black" d="M193.326,-509.124C208.715,-513.121 227.834,-519.91 242,-531 264.713,-548.78 256.239,-566.067 278,-585 284.069,-590.28 291.351,-594.774 298.625,-598.493"/>
<polygon fill="black" stroke="black" points="297.204,-601.693 307.742,-602.789 300.188,-595.36 297.204,-601.693"/>
</g>
<!-- execve -->
<g id="node12" class="node"><title>execve</title>
<polygon fill="Wheat" stroke="black" points="365,-576 305,-576 305,-540 365,-540 365,-576"/>
<text text-anchor="middle" x="335" y="-554.2" font-family="Times,serif" font-size="16.00" fill="blue">execve</text>
</g>
<!-- init&#45;&gt;execve -->
<g id="edge11" class="edge"><title>init&#45;&gt;execve</title>
<path fill="none" stroke="black" d="M193.094,-512.438C220.41,-521.27 263.614,-535.24 294.985,-545.384"/>
<polygon fill="black" stroke="black" points="294.128,-548.786 304.72,-548.532 296.282,-542.125 294.128,-548.786"/>
</g>
<!-- open -->
<g id="node13" class="node"><title>open</title>
<polygon fill="Wheat" stroke="black" points="362,-522 308,-522 308,-486 362,-486 362,-522"/>
<text text-anchor="middle" x="335" y="-500.2" font-family="Times,serif" font-size="16.00" fill="blue">open</text>
</g>
<!-- init&#45;&gt;open -->
<g id="edge13" class="edge"><title>init&#45;&gt;open</title>
<path fill="none" stroke="black" d="M193.094,-504C221.199,-504 266.121,-504 297.671,-504"/>
<polygon fill="black" stroke="black" points="297.814,-507.5 307.814,-504 297.814,-500.5 297.814,-507.5"/>
</g>
<!-- printf -->
<g id="node14" class="node"><title>printf</title>
<polygon fill="Wheat" stroke="black" points="362,-468 308,-468 308,-432 362,-432 362,-468"/>
<text text-anchor="middle" x="335" y="-446.2" font-family="Times,serif" font-size="16.00" fill="blue">printf</text>
</g>
<!-- init&#45;&gt;printf -->
<g id="edge14" class="edge"><title>init&#45;&gt;printf</title>
<path fill="none" stroke="black" d="M193.094,-495.562C221.321,-486.435 266.512,-471.823 298.082,-461.614"/>
<polygon fill="black" stroke="black" points="299.376,-464.874 307.814,-458.467 297.223,-458.214 299.376,-464.874"/>
</g>
<!-- setsid -->
<g id="node19" class="node"><title>setsid</title>
<polygon fill="Wheat" stroke="black" points="362,-414 308,-414 308,-378 362,-378 362,-414"/>
<text text-anchor="middle" x="335" y="-392.2" font-family="Times,serif" font-size="16.00" fill="blue">setsid</text>
</g>
<!-- init&#45;&gt;setsid -->
<g id="edge19" class="edge"><title>init&#45;&gt;setsid</title>
<path fill="none" stroke="black" d="M193.326,-498.876C208.715,-494.879 227.834,-488.09 242,-477 264.713,-459.22 256.239,-441.933 278,-423 284.069,-417.72 291.351,-413.226 298.625,-409.507"/>
<polygon fill="black" stroke="black" points="300.188,-412.64 307.742,-405.211 297.204,-406.307 300.188,-412.64"/>
</g>
<!-- setup -->
<g id="node20" class="node"><title>setup</title>
<polygon fill="Wheat" stroke="black" points="362,-360 308,-360 308,-324 362,-324 362,-360"/>
<text text-anchor="middle" x="335" y="-338.2" font-family="Times,serif" font-size="16.00" fill="blue">setup</text>
</g>
<!-- init&#45;&gt;setup -->
<g id="edge20" class="edge"><title>init&#45;&gt;setup</title>
<path fill="none" stroke="black" d="M193.038,-500.488C209.103,-497.044 229.044,-490.268 242,-477 277.349,-440.8 244.575,-406.984 278,-369 283.515,-362.733 290.809,-357.788 298.304,-353.939"/>
<polygon fill="black" stroke="black" points="300.129,-356.954 307.786,-349.632 297.234,-350.581 300.129,-356.954"/>
</g>
<!-- sync -->
<g id="node21" class="node"><title>sync</title>
<polygon fill="Wheat" stroke="black" points="362,-306 308,-306 308,-270 362,-270 362,-306"/>
<text text-anchor="middle" x="335" y="-284.2" font-family="Times,serif" font-size="16.00" fill="blue">sync</text>
</g>
<!-- init&#45;&gt;sync -->
<g id="edge21" class="edge"><title>init&#45;&gt;sync</title>
<path fill="none" stroke="black" d="M193.152,-501.004C209.472,-497.763 229.654,-491.021 242,-477 290.742,-421.645 232.192,-372.807 278,-315 283.396,-308.19 290.936,-302.993 298.738,-299.068"/>
<polygon fill="black" stroke="black" points="300.167,-302.263 307.904,-295.025 297.342,-295.859 300.167,-302.263"/>
</g>
<!-- wait -->
<g id="node22" class="node"><title>wait</title>
<polygon fill="Wheat" stroke="black" points="362,-252 308,-252 308,-216 362,-216 362,-252"/>
<text text-anchor="middle" x="335" y="-230.2" font-family="Times,serif" font-size="16.00" fill="blue">wait</text>
</g>
<!-- init&#45;&gt;wait -->
<g id="edge22" class="edge"><title>init&#45;&gt;wait</title>
<path fill="none" stroke="black" d="M193.042,-501.291C209.531,-498.17 229.945,-491.453 242,-477 304.34,-402.262 219.618,-338.869 278,-261 283.259,-253.986 290.817,-248.705 298.687,-244.763"/>
<polygon fill="black" stroke="black" points="300.18,-247.931 307.949,-240.728 297.384,-241.514 300.18,-247.931"/>
</g>
<!-- va_end -->
<g id="node15" class="node"><title>va_end</title>
<polygon fill="Wheat" stroke="black" points="493.5,-549 430.5,-549 430.5,-513 493.5,-513 493.5,-549"/>
<text text-anchor="middle" x="462" y="-527.2" font-family="Times,serif" font-size="16.00" fill="blue">va_end</text>
</g>
<!-- printf&#45;&gt;va_end -->
<g id="edge15" class="edge"><title>printf&#45;&gt;va_end</title>
<path fill="none" stroke="black" d="M362.266,-461.242C371.864,-465.716 382.653,-471.183 392,-477 399.955,-481.95 416.231,-494.64 430.978,-506.475"/>
<polygon fill="black" stroke="black" points="428.971,-509.352 438.951,-512.907 433.366,-503.904 428.971,-509.352"/>
</g>
<!-- va_start -->
<g id="node16" class="node"><title>va_start</title>
<polygon fill="Wheat" stroke="black" points="495.5,-495 428.5,-495 428.5,-459 495.5,-459 495.5,-495"/>
<text text-anchor="middle" x="462" y="-473.2" font-family="Times,serif" font-size="16.00" fill="blue">va_start</text>
</g>
<!-- printf&#45;&gt;va_start -->
<g id="edge16" class="edge"><title>printf&#45;&gt;va_start</title>
<path fill="none" stroke="black" d="M362.204,-455.66C378.392,-459.157 399.552,-463.727 418.135,-467.741"/>
<polygon fill="black" stroke="black" points="417.631,-471.213 428.145,-469.903 419.109,-464.371 417.631,-471.213"/>
</g>
<!-- vsprintf -->
<g id="node17" class="node"><title>vsprintf</title>
<polygon fill="Wheat" stroke="black" points="495.5,-441 428.5,-441 428.5,-405 495.5,-405 495.5,-441"/>
<text text-anchor="middle" x="462" y="-419.2" font-family="Times,serif" font-size="16.00" fill="blue">vsprintf</text>
</g>
<!-- printf&#45;&gt;vsprintf -->
<g id="edge17" class="edge"><title>printf&#45;&gt;vsprintf</title>
<path fill="none" stroke="black" d="M362.204,-444.34C378.392,-440.843 399.552,-436.273 418.135,-432.259"/>
<polygon fill="black" stroke="black" points="419.109,-435.629 428.145,-430.097 417.631,-428.787 419.109,-435.629"/>
</g>
<!-- write -->
<g id="node18" class="node"><title>write</title>
<polygon fill="Wheat" stroke="black" points="489,-387 435,-387 435,-351 489,-351 489,-387"/>
<text text-anchor="middle" x="462" y="-365.2" font-family="Times,serif" font-size="16.00" fill="blue">write</text>
</g>
<!-- printf&#45;&gt;write -->
<g id="edge18" class="edge"><title>printf&#45;&gt;write</title>
<path fill="none" stroke="black" d="M362.266,-438.758C371.864,-434.284 382.653,-428.817 392,-423 399.955,-418.05 416.231,-405.36 430.978,-393.525"/>
<polygon fill="black" stroke="black" points="433.366,-396.096 438.951,-387.093 428.971,-390.648 433.366,-396.096"/>
</g>
<!-- BCD_TO_BIN -->
<g id="node30" class="node"><title>BCD_TO_BIN</title>
<polygon fill="Wheat" stroke="black" points="391.5,-198 278.5,-198 278.5,-162 391.5,-162 391.5,-198"/>
<text text-anchor="middle" x="335" y="-176.2" font-family="Times,serif" font-size="16.00" fill="blue">BCD_TO_BIN</text>
</g>
<!-- time_init&#45;&gt;BCD_TO_BIN -->
<g id="edge30" class="edge"><title>time_init&#45;&gt;BCD_TO_BIN</title>
<path fill="none" stroke="black" d="M203.649,-137.851C222.718,-144.017 246.608,-151.741 268.708,-158.888"/>
<polygon fill="black" stroke="black" points="267.789,-162.269 278.381,-162.015 269.942,-155.608 267.789,-162.269"/>
</g>
<!-- CMOS_READ -->
<g id="node31" class="node"><title>CMOS_READ</title>
<polygon fill="Wheat" stroke="black" points="391.5,-144 278.5,-144 278.5,-108 391.5,-108 391.5,-144"/>
<text text-anchor="middle" x="335" y="-122.2" font-family="Times,serif" font-size="16.00" fill="blue">CMOS_READ</text>
</g>
<!-- time_init&#45;&gt;CMOS_READ -->
<g id="edge31" class="edge"><title>time_init&#45;&gt;CMOS_READ</title>
<path fill="none" stroke="black" d="M203.649,-126C222.547,-126 246.179,-126 268.113,-126"/>
<polygon fill="black" stroke="black" points="268.381,-129.5 278.381,-126 268.381,-122.5 268.381,-129.5"/>
</g>
<!-- kernel_mktime -->
<g id="node34" class="node"><title>kernel_mktime</title>
<polygon fill="Wheat" stroke="black" points="392,-90 278,-90 278,-54 392,-54 392,-90"/>
<text text-anchor="middle" x="335" y="-68.2" font-family="Times,serif" font-size="16.00" fill="blue">kernel_mktime</text>
</g>
<!-- time_init&#45;&gt;kernel_mktime -->
<g id="edge34" class="edge"><title>time_init&#45;&gt;kernel_mktime</title>
<path fill="none" stroke="black" d="M203.649,-114.149C222.635,-108.01 246.398,-100.326 268.417,-93.2064"/>
<polygon fill="black" stroke="black" points="269.619,-96.4964 278.057,-90.0895 267.465,-89.836 269.619,-96.4964"/>
</g>
<!-- inb_p -->
<g id="node32" class="node"><title>inb_p</title>
<polygon fill="Wheat" stroke="black" points="489,-171 435,-171 435,-135 489,-135 489,-171"/>
<text text-anchor="middle" x="462" y="-149.2" font-family="Times,serif" font-size="16.00" fill="blue">inb_p</text>
</g>
<!-- CMOS_READ&#45;&gt;inb_p -->
<g id="edge32" class="edge"><title>CMOS_READ&#45;&gt;inb_p</title>
<path fill="none" stroke="black" d="M391.555,-138C402.9,-140.45 414.555,-142.968 424.998,-145.224"/>
<polygon fill="black" stroke="black" points="424.468,-148.69 434.981,-147.38 425.946,-141.847 424.468,-148.69"/>
</g>
<!-- outb_p -->
<g id="node33" class="node"><title>outb_p</title>
<polygon fill="Wheat" stroke="black" points="493,-117 431,-117 431,-81 493,-81 493,-117"/>
<text text-anchor="middle" x="462" y="-95.2" font-family="Times,serif" font-size="16.00" fill="blue">outb_p</text>
</g>
<!-- CMOS_READ&#45;&gt;outb_p -->
<g id="edge33" class="edge"><title>CMOS_READ&#45;&gt;outb_p</title>
<path fill="none" stroke="black" d="M391.555,-114C401.515,-111.849 411.713,-109.646 421.12,-107.614"/>
<polygon fill="black" stroke="black" points="421.934,-111.019 430.97,-105.486 420.456,-104.177 421.934,-111.019"/>
</g>
</g>
</svg>
